<?xml version="1.0" encoding="UTF-8"?>
<svg width="211px" height="47px" viewBox="0 0 211 47" version="1.1" xmlns="http://www.w3.org/2000/svg" xmlns:xlink="http://www.w3.org/1999/xlink">
    <!-- Generator: Sketch 56.3 (81716) - https://sketch.com -->
    <title>SVG Copy 2</title>
    <desc>Created with Sketch.</desc>
    <defs>
        <radialGradient cx="90.3447555%" cy="-17.2321569%" fx="90.3447555%" fy="-17.2321569%" r="505.153853%" gradientTransform="translate(0.903448,-0.172322),scale(0.221445,1.000000),rotate(163.015072),scale(1.000000,0.562261),translate(-0.903448,0.172322)" id="radialGradient-1">
            <stop stop-color="#2182D9" offset="0%"></stop>
            <stop stop-color="#4395DF" offset="61.9303268%"></stop>
            <stop stop-color="#FFFFFF" offset="100%"></stop>
        </radialGradient>
    </defs>
    <g id="Drivers-Side" stroke="none" stroke-width="1" fill="none" fill-rule="evenodd">
        <g id="Sign-Up/2" transform="translate(-101.000000, -63.000000)" fill="url(#radialGradient-1)" fill-rule="nonzero">
            <g id="SVG-Copy-2" transform="translate(101.000000, 63.000000)">
                <g id="Layer_1">
                    <g id="Group">
                        <path d="M102.676368,0.246058824 L106.472861,4.04577005 L106.472861,17.064016 L102.707264,20.8647326 L86.7827929,20.8647326 L86.7827929,0.245807487 L102.676368,0.245807487 L102.676368,0.246058824 Z M100.000687,5.25369519 L93.2876214,5.25369519 L93.2876214,15.8578503 L100.000687,15.8578503 L100.000687,5.25369519 Z M127.049129,0.246058824 L130.818995,3.83917112 L130.818995,10.1434545 L127.755727,13.2067487 L130.818995,20.8350749 L130.818995,20.864984 L123.839919,20.864984 L121.425476,14.4139198 L117.655861,14.4139198 L117.655861,20.864984 L111.183436,20.864984 L111.183436,0.246058824 L127.049129,0.246058824 Z M124.36968,5.2237861 L117.65561,5.2237861 L117.65561,9.43669519 L124.36968,9.43669519 L124.36968,5.2237861 Z M141.145436,0.246058824 L141.145436,20.864984 L134.638598,20.864984 L134.638598,0.246058824 L141.145436,0.246058824 Z M164.723681,0.246058824 L161.368279,20.864984 L148.327976,20.864984 L144.968806,0.246058824 L151.418121,0.246058824 L154.274408,15.886754 L155.422098,15.886754 L158.247488,0.246058824 L164.723681,0.246058824 Z M186.474515,0.246058824 L186.474515,5.28335294 L175.906179,5.28335294 L175.906179,8.08148663 L183.940757,8.08148663 L183.940757,13.0587112 L175.906179,13.0587112 L175.906179,15.8578503 L186.474515,15.8578503 L186.474515,20.8647326 L169.429986,20.8647326 L169.429986,0.245807487 L186.474515,0.245807487 L186.474515,0.246058824 Z M207.046764,0.246058824 L210.816631,3.83917112 L210.816631,10.1434545 L207.753363,13.2067487 L210.816631,20.8350749 L210.816631,20.864984 L203.837806,20.864984 L201.423112,14.4139198 L197.657264,14.4139198 L197.657264,20.864984 L191.181071,20.864984 L191.181071,0.246058824 L207.046764,0.246058824 Z M204.367315,5.2237861 L197.657013,5.2237861 L197.657013,9.43669519 L204.367315,9.43669519 L204.367315,5.2237861 Z M86.7827929,30.0372727 L90.55065,26.2672193 L102.649742,26.2672193 L106.419608,30.0372727 L106.419608,43.1160909 L102.649742,46.8861444 L90.55065,46.8861444 L86.7827929,43.1160909 L86.7827929,30.0372727 Z M99.9431643,31.2451979 L93.2587345,31.2451979 L93.2587345,41.9081658 L99.9431643,41.9081658 L99.9431643,31.2451979 Z M117.041449,26.2672193 L124.841918,36.6936791 L124.841918,26.2672193 L130.757705,26.2672193 L130.757705,46.8861444 L125.460098,46.8861444 L117.041449,35.6048877 L117.041449,46.8861444 L111.125662,46.8861444 L111.125662,26.2672193 L117.041449,26.2672193 Z M152.508539,26.2672193 L152.508539,31.305016 L141.940202,31.305016 L141.940202,34.1031497 L149.975032,34.1031497 L149.975032,39.079369 L141.940202,39.079369 L141.940202,41.8795134 L152.508539,41.8795134 L152.508539,46.8863957 L135.464261,46.8863957 L135.464261,26.2672193 L152.508539,26.2672193 Z M0.00301428571,46.9243476 L12.9415845,40.1985722 L14.1402655,42.420893 L6.16145119,46.9243476 L3.17379167,46.9243476 L3.15470119,46.9034866 L0.00301428571,46.9243476 Z M23.4945988,34.8885775 L33.086056,30.2099412 L34.0880548,29.7185775 L34.8345929,31.1740695 L33.086056,32.1170856 L26.6003179,35.5779947 L24.439075,36.7379144 L23.8487774,35.5779947 L23.4945988,34.8885775 Z M47.7475417,23.3067219 L55.5095786,19.7875027 L55.8243202,20.4759144 L47.7475417,24.507107 L45.2705524,25.7459465 L44.7598821,24.6634385 L47.7475417,23.3067219 Z M16.9312429,46.9243476 C22.9447429,42.6571497 30.4716655,37.485139 38.136994,32.5300321 C41.3404262,30.4637914 44.5822905,28.4201711 47.7475417,26.4916631 L47.7475417,38.3301337 L39.2176155,46.9243476 L16.9312429,46.9243476 Z M67.1643143,14.1831925 C65.6307964,14.6748075 63.8822595,15.1855241 61.9953167,15.8349786 C60.6976667,16.2670267 59.3417405,16.7392888 57.9270357,17.2502567 L52.2272726,17.2502567 L52.2272726,5.90365241 C58.9491298,5.41304278 59.223681,0.241032086 59.223681,0.241032086 L73.2172512,0.241032086 L73.2172512,12.452738 C72.6663905,12.6093209 71.9793845,12.806369 71.1539726,13.0222674 C70.0329095,13.3170856 68.6777369,13.6714706 67.1643143,14.1831925 Z M7.26216786,39.3133636 C5.76783571,40.0623476 4.39256786,40.7500053 3.15470119,41.3798556 C2.23057143,41.8310053 0.865853571,42.5628984 0.119315476,42.9353797 L3.15470119,39.2153422 L3.15470119,0.26013369 L39.1590881,0.26013369 L47.7475417,8.85359358 L47.7475417,21.1047594 C43.5805429,22.7562941 39.2176155,24.5847701 34.894125,26.4728128 C34.2847369,26.7301818 33.695444,27.0028824 33.086056,27.2602513 L33.086056,11.586631 L12.7258119,11.586631 L17.8938048,13.6129091 L17.8938048,34.1818182 C14.4555095,35.8142513 11.2518262,37.365754 8.4216631,38.7428289 C8.02804762,38.9408824 7.6354369,39.1366738 7.26216786,39.3133636 Z M75.0426524,11.8786845 L73.2172512,13.9660374 L73.2172512,46.9245989 L59.223681,46.9245989 L59.223681,19.7673957 C60.481894,19.0787326 61.680575,18.4101765 62.8408238,17.8006845 C64.5702702,16.8767701 66.2009988,16.0903369 67.6164571,15.3624652 C69.0512571,14.615492 70.3084655,14.0449572 71.3506548,13.5734492 C72.097444,13.2394225 72.7055762,12.9637059 73.2172512,12.7274492 L75.0426524,11.8786845 Z" id="Combined-Shape"></path>
                    </g>
                </g>
            </g>
        </g>
    </g>
</svg>