<svg width="307" height="318" xmlns="http://www.w3.org/2000/svg"><defs><linearGradient x1="50%" y1="-326.85%" x2="50%" y2="740.1907%" id="a"><stop stop-color="#7AC0FF" offset="0%"/><stop stop-color="#2182D9" offset="100%"/></linearGradient></defs><g transform="translate(-5)" fill="none" fill-rule="evenodd"><text font-family="OpenSans-Semibold, Open Sans" font-size="20" font-weight="500" fill="#FFF"><tspan x="27.3193" y="217">Sign up here to see a world </tspan> <tspan x="43.4424" y="244">where drivers come </tspan> <tspan x="239.3408" y="244" font-family="Helvetica" font-weight="normal">first</tspan></text><text font-family="Helvetica" font-size="18" fill="#FFF"><tspan x="8.9233" y="288">Quick signup process. Make $$ when </tspan> <tspan x="30.105" y="310">your friends drive. Next day pay. </tspan></text><g fill="#FFF" fill-rule="nonzero"><path d="M218.6303 65.4364c0-1.1091-.7394-1.8485-1.8485-1.8485h-42.5151c2.9575-4.6212 4.9909-9.6121 5.9151-14.7879 3.8818 2.2182 8.3182 3.3273 12.7546 3.3273C207.3545 52.1273 219 40.4818 219 26.0636 219 11.6455 207.3545 0 192.9364 0c-9.6122 0-18.3 5.1758-22.9212 13.494C162.2515 5.1757 151.3455.1847 139.7 0h-1.294C115.1153.1848 97 19.0394 97 41.2212c0 12.7546 5.9152 24.5849 16.0818 32.3485v46.5818c0 1.1091.7394 1.8485 1.8485 1.8485h101.8515c1.1091 0 1.8485-.7394 1.8485-1.8485V65.4364zm-90.5758 1.8484c-.7393 5.7304-5.1757 10.5364-11.2757 11.2758V67.2848h11.2757zm-11.2757 14.9728c8.1333-.9243 14.2333-7.394 14.9727-14.9728h68.2091c.9242 7.9485 7.0242 14.0485 14.9727 14.9728v20.8879c-7.9485.9242-14.2333 7.209-14.9727 15.1575h-68.209c-.9243-7.9485-7.2092-14.2333-14.9728-14.9727V82.2576zm98.1545-3.697c-5.7303-.9242-10.3515-5.3606-11.2757-11.2758h11.2757v11.2758zM192.9363 3.697c12.385 0 22.3667 9.9818 22.3667 22.3666 0 12.3849-9.9818 22.3667-22.3666 22.3667-4.4364 0-8.503-1.294-12.2-3.697.9242-9.797-1.6637-19.594-8.1334-28.097C176.3 8.688 184.0636 3.697 192.9364 3.697zm-64.8818 114.606h-11.2757v-11.2757c5.9151.7394 10.5364 5.3606 11.2757 11.2757zm75.603 0c.7395-5.9151 5.3607-10.5363 11.2758-11.4606v11.4606h-11.2757z"/><path d="M165.7636 114.791c12.0152 0 21.997-9.797 21.997-21.997s-9.797-21.997-21.997-21.997c-7.3939 0-14.603 4.6212-15.5272 6.4697-4.0667 4.0666-6.4697 9.612-6.4697 15.5272 0 12.2 9.9818 21.997 21.997 21.997zm0-40.297c9.9819 0 18.3 8.1333 18.3 18.3 0 10.1666-8.1333 18.3-18.3 18.3-9.9818 0-18.3-8.1334-18.3-18.3 0-10.1667 8.3182-18.3 18.3-18.3z"/><path d="M159.4788 97.6l-2.403 2.7727c2.403 2.0334 4.9909 3.3273 7.9484 3.5121v2.403h2.2182v-2.403c2.2182-.1848 4.0667-.7393 5.3606-2.0333 1.294-1.109 2.0334-2.7727 2.0334-4.6212s-.5546-3.3273-1.6637-4.4364c-1.109-.9242-2.9575-1.8484-5.5454-2.403v-6.1c1.6636.1849 3.1424.9243 4.6212 1.8485l2.2182-2.9576c-2.2182-1.4788-4.4364-2.2182-6.8394-2.403v-1.6636h-2.0334v1.6636c-2.0333.1848-3.8818.7394-5.1757 2.0333-1.294 1.1091-2.0334 2.7727-2.0334 4.6212s.5546 3.3273 1.6637 4.2515c1.109.9243 2.9576 1.6637 5.3606 2.2182v6.2849c-2.0333-.1849-3.8818-1.1091-5.7303-2.5879zm7.7636-2.9576c1.294.3697 2.2182.7394 2.5879 1.294.5545.3697.7394 1.109.7394 1.8484 0 .7394-.3697 1.294-.9242 1.8485-.5546.5546-1.4788.7394-2.403.9243v-5.9152zm-4.6212-5.9151c-.3697-.3697-.7394-.9243-.7394-1.6637s.3697-1.2939.9243-1.8484c.5545-.5546 1.2939-.7394 2.2181-.9243v5.7303c-1.109-.3697-2.0333-.7394-2.403-1.294zM186.4667 30.6848l-2.9576 3.5122c2.9576 2.5878 6.2848 4.0666 9.9818 4.4363v2.9576h2.5879v-2.9576c5.1757-.1848 9.0576-3.1424 9.0576-8.3181 0-3.697-1.4788-6.6546-9.0576-8.3182h-.1849v-7.5788c2.0334.3697 4.0667 1.109 5.7303 2.403l2.588-3.697c-2.588-1.8484-5.3607-2.7727-8.5031-2.9575v-2.403h-2.5879V9.797c-4.9909.1848-8.8727 3.3272-8.8727 8.1333 0 3.697 1.294 6.4697 8.8727 8.1333v7.9485c-2.0333-.1848-4.2515-1.4788-6.6545-3.3273zm9.612-3.697c2.588.7395 4.2516 1.6637 4.2516 3.8819s-2.0333 3.3273-4.2515 3.5121v-7.394zm-6.4696-9.4272c0-2.0333 1.6636-3.1424 3.8818-3.3273v7.0243c-2.403-.7394-3.8818-1.4788-3.8818-3.697z"/></g><circle fill="url(#a)" cx="139" cy="42" r="42"/><g fill="#FFF" fill-rule="nonzero"><path d="M138.851 84c-23.0536 0-41.8092-18.8412-41.8092-42S115.7974 0 138.851 0c23.0536 0 41.8092 18.8412 41.8092 42s-18.7556 42-41.8092 42zm0-81.2c-21.5164 0-39.022 17.5854-39.022 39.2 0 21.6146 17.5056 39.2 39.022 39.2 21.5164 0 39.022-17.5854 39.022-39.2 0-21.6146-17.5056-39.2-39.022-39.2z"/><path d="M143.5838 71.9684c-1.894 0-3.6764-1.1452-4.415-3.0016l-1.5275-3.836a4.7661 4.7661 0 0 1-.1979-.6132l-2.6423-10.619a1.9718 1.9718 0 0 0-.1491-.4032l-1.4188-2.849c-.4139-.833-1.3295-1.2502-2.2312-1.0318l-1.349.3388c-1.4313.3584-2.9713.0224-4.121-.903l-4.4109-3.5434c-1.133-.9128-1.7824-2.2708-1.7824-3.7268v-1.4994c0-1.001.3066-1.9586.885-2.772l5.339-7.5082c.8905-1.253 2.3357-1.9992 3.866-1.9992h2.9168c.864 0 1.71.2366 2.4458.6818l5.0548 3.0464a1.9352 1.9352 0 0 0 1.395.2436l3.0228-.609c2.1922-.441 4.4192.7378 5.2986 2.8014l2.68 6.2818c.1617.378.4432.7028.793.9114l2.7455 1.6562c1.1748.7084 1.9887 1.8928 2.2312 3.2466a4.7914 4.7914 0 0 1-.9658 3.8262l-2.4389 3.0632a1.9883 1.9883 0 0 0-.4306 1.232v4.4198c0 1.2572-.5073 2.4878-1.3923 3.3754l-1.5107 1.5176a1.981 1.981 0 0 0-.2954.3794L147.649 69.65c-.5826.9744-1.4954 1.7108-2.57 2.0706a4.5887 4.5887 0 0 1-1.4953.2478zM131.4982 46.753c1.7643 0 3.406.987 4.2297 2.6418l1.4187 2.849c.1547.3108.276.6398.3596.9772l2.6423 10.619c.0209.0854.0488.168.0808.2492l1.5288 3.8402c.386.966 1.4564 1.4658 2.4445 1.1382a1.98 1.98 0 0 0 1.0633-.8582l3.328-5.5734a4.816 4.816 0 0 1 .7136-.917l1.512-1.5204c.3666-.3668.5757-.875.5757-1.3944v-4.4198a4.8018 4.8018 0 0 1 1.041-2.9806l2.4403-3.0632c.3595-.4508.5003-1.0122.4-1.5806-.1018-.5684-.4293-1.0458-.9226-1.3426l-2.7441-1.6548c-.8599-.5166-1.5247-1.281-1.9218-2.2106l-2.6814-6.2832c-.3637-.8526-1.2835-1.337-2.1894-1.1578l-3.0242.609c-1.1623.2366-2.3608.0238-3.3768-.588l-5.0575-3.0478a1.9472 1.9472 0 0 0-1.0104-.2814h-2.9169c-.6327 0-1.2292.3094-1.5971.826l-5.339 7.5082a1.9614 1.9614 0 0 0-.3666 1.1452v1.4994c0 .602.269 1.1634.7373 1.5414l4.4094 3.542c.4753.3822 1.1136.525 1.7045.3738l1.3476-.3374a4.6761 4.6761 0 0 1 1.1707-.1484zM159.7556 70c-.368 0-.7219-.1456-.9853-.4102l-2.7873-2.8a1.4025 1.4025 0 0 1-.3804-1.2642l1.3936-7a1.4157 1.4157 0 0 1 .3805-.7154l4.1809-4.2c.3637-.3654.8989-.5012 1.3895-.35.492.1484.8612.5586.9616 1.0654l1.3936 7a1.406 1.406 0 0 1-.1714.9954l-4.181 7a1.3946 1.3946 0 0 1-1.0243.6692 1.7554 1.7554 0 0 1-.17.0098zm-1.2752-4.6606l.9979 1.0038 2.9852-4.998-.7777-3.9046-2.0417 2.051-1.1637 5.8478z"/><path d="M175.08 38.8948c-2.1893 0-4.1488-1.5092-4.7035-3.717-.3275-1.3048-.7372-2.4234-1.2152-3.3278-.3038-.574-.8501-.9408-1.501-1.008-.7121-.0714-1.4061.2198-1.8674.7798-2.8054 3.4062-5.5384 4.9812-8.1305 4.6872-3.1413-.3612-4.666-3.3544-4.73-3.4818-6.4582-12.9766-17.9961-11.8552-18.1104-11.8342a1.4062 1.4062 0 0 1-.1533.0084c-.7749 0-1.6347.1876-2.5531.5558-3.08 1.2376-6.4833.3094-8.4692-2.3086-1.9455-2.5676-1.9344-5.9052.0293-8.5008l.1616-.2114c.9784-1.2628 2.4751-2.0664 4.1029-2.1994 5.254-.4284 9.1604-2.968 11.6118-7.5488.2537-.4746.7582-.7644 1.2933-.735 20.3444.9604 36.9468 16.3884 39.4763 36.6842.0905.7308-.3972 1.4084-1.1177 1.547a59.112 59.112 0 0 1-3.4883.5698 5.1483 5.1483 0 0 1-.6355.0406zm-7.6343-10.864c.1659 0 .3317.0098.4976.0266 1.5915.1624 2.9322 1.0668 3.6792 2.478.5839 1.1032 1.0745 2.4346 1.4563 3.9564.262 1.0416 1.2362 1.7248 2.2675 1.5862a60.0104 60.0104 0 0 0 2.0235-.3066c-2.8514-18.011-17.6462-31.626-35.8054-32.8734-2.1406 3.5896-6.139 7.6356-13.397 8.2292-.8515.07-1.6278.4816-2.131 1.1312l-.1379.1792c-1.441 1.904-.9602 3.8892-.0334 5.1142.9393 1.239 2.868 2.352 5.2164 1.4056 1.2236-.4914 2.4068-.7448 3.5175-.756.563-.0518 3.7308-.2492 7.6692 1.1284 3.8994 1.3636 9.3486 4.5934 13.1574 12.2458.0042.0098.9323 1.778 2.5698 1.9544 1.5735.1974 3.5218-1.106 5.6499-3.6918.949-1.1522 2.3413-1.8074 3.8004-1.8074zM102.045 39.2H98.65c-.3943 0-.7706-.168-1.034-.462a1.4049 1.4049 0 0 1-.3512-1.0808c.8055-7.8694 3.8158-15.3328 8.7088-21.5852.4084-.5222 1.1261-.6846 1.7184-.3864l5.2317 2.6278c2.1867 1.099 3.7336 3.2018 4.135 5.6252l.1073.6398c.556 3.3572-1.1052 6.636-4.135 8.1578l-2.726 1.3692a4.9064 4.9064 0 0 0-1.8785 1.666c-1.4257 2.1462-3.8103 3.4286-6.3815 3.4286zm-1.8201-2.8h1.82c1.6362 0 3.1553-.8162 4.0625-2.184a7.6928 7.6928 0 0 1 2.9518-2.618l2.726-1.3692c1.9287-.9674 2.9865-3.0562 2.6325-5.1926l-.1073-.6398v-.0014c-.2564-1.5428-1.2403-2.8798-2.6326-3.5798l-4.2004-2.1098c-3.8534 5.2276-6.3397 11.2952-7.2525 17.6946zM114.0888 75.4754a1.3877 1.3877 0 0 1-.8557-.294c-9.1311-7.126-14.9677-17.8164-16.0101-29.33a1.4 1.4 0 0 1 .839-1.414l1.459-.6286h.0001c2.9197-1.2572 6.2574-.6104 8.504 1.6464l2.5824 2.5942a4.9194 4.9194 0 0 0 2.5225 1.3566c3.5984.7238 6.2087 3.9228 6.2087 7.609v.3878c0 2.1098-.6146 4.151-1.7797 5.9038-.6899 1.0388-1.126 2.2456-1.264 3.4846l-.8223 7.4396c-.0557.5026-.3777.938-.8418 1.1354a1.4046 1.4046 0 0 1-.542.1092zm-13.9852-28.8708c1.115 9.5186 5.7377 18.3638 12.8856 24.7352l.5366-4.8594c.1867-1.6828.779-3.318 1.7142-4.7292.8584-1.2922 1.3114-2.7958 1.3114-4.3498v-.3878c0-2.3562-1.6682-4.4016-3.9691-4.8636a7.6692 7.6692 0 0 1-3.9468-2.1224l-2.5824-2.5942c-1.4369-1.4406-3.5691-1.855-5.4352-1.0528l-.5143.224z"/></g></g></svg>