<svg width="91" height="66" xmlns="http://www.w3.org/2000/svg"><g transform="translate(1)" fill="none" fill-rule="evenodd"><rect stroke="#FFE490" stroke-width="2" fill="#FFB977" x="14" y="1" width="60" height="6" rx="1"/><rect stroke="#FFE490" stroke-width="2" fill="#FFB977" x="8" y="7" width="72" height="7" rx="1"/><rect stroke="#FFE490" stroke-width="2" fill="#FFB977" transform="rotate(-90 44.174 38.9375)" x="19" y="-5" width="50.348" height="87.875" rx="1"/><circle stroke="#FFE490" stroke-width="2" cx="43.534" cy="38.534" r="18.534"/><path d="M43.5 29.58c2.4477 0 4.433 1.8996 4.433 4.2416 0 .5464.4624.9888 1.0335.9888.5712 0 1.0335-.4424 1.0335-.9888 0-3.0707-2.3661-5.6209-5.4393-6.0893v-1.7435c0-.5464-.4624-.9888-1.0335-.9888-.5711 0-1.0335.4424-1.0335.9888v1.7175c-3.0732.4684-5.4393 3.0186-5.4393 6.0892 0 3.409 2.91 6.1933 6.4728 6.1933 2.4477 0 4.433 1.8997 4.433 4.2417 0 2.342-2.0125 4.2156-4.4602 4.2156s-4.433-1.8996-4.433-4.2416c0-.5465-.4624-.9889-1.0335-.9889-.5712 0-1.0335.4424-1.0335.9889 0 3.0706 2.3661 5.6208 5.4393 6.0892v1.7175c0 .5464.4624.9888 1.0335.9888.5711 0 1.0335-.4424 1.0335-.9888v-1.7175c3.0732-.4684 5.4393-3.0186 5.4393-6.0892 0-3.409-2.91-6.1933-6.4728-6.1933-2.4477 0-4.433-1.8997-4.433-4.2417 0-2.342 2.0125-4.1896 4.4602-4.1896z" fill="#FFE490" fill-rule="nonzero"/><circle stroke="#FFE490" stroke-width="2" cx="74.037" cy="40.148" r="1"/><circle stroke="#FFE490" stroke-width="2" cx="13.035" cy="40.148" r="1"/></g></svg>