<?xml version="1.0" encoding="UTF-8"?>
<svg width="157px" height="35px" viewBox="0 0 157 35" version="1.1" xmlns="http://www.w3.org/2000/svg" xmlns:xlink="http://www.w3.org/1999/xlink">
    <!-- Generator: Sketch 56.3 (81716) - https://sketch.com -->
    <title>SVG Copy</title>
    <desc>Created with Sketch.</desc>
    <g id="Drivers-Side" stroke="none" stroke-width="1" fill="none" fill-rule="evenodd">
        <g id="Onboarding/3" transform="translate(-127.000000, -40.000000)" fill="#FFFFFF" fill-rule="nonzero">
            <g id="SVG-Copy" transform="translate(127.000000, 40.000000)">
                <g id="Layer_1">
                    <g id="Group" transform="translate(0.000000, 14.598930)">
                        <polygon id="Path" points="0.00224285714 20.3447326 2.3473369 20.3291979 2.36154167 20.3447326 4.5845869 20.3447326 10.5214298 16.9910963 9.62952024 15.3361765"></polygon>
                        <polygon id="Path" points="17.4817631 11.3819251 17.7452988 11.8953209 18.184525 12.7590909 19.7926536 11.8953209 24.6185345 9.31804813 25.9195786 8.61580214 25.3640976 7.53192513 24.6185345 7.89783422"></polygon>
                        <polygon id="Path" points="35.5277917 2.75713904 33.3047464 3.76745989 33.6847238 4.57358289 35.5277917 3.65104278 41.5375274 0.649090909 41.3033357 0.13644385"></polygon>
                    </g>
                    <g id="Group" transform="translate(64.482143, 0.000000)">
                        <path d="M11.9168607,0.183235294 L14.7417393,3.01280749 L14.7417393,12.707246 L11.93985,15.5375668 L0.0908357143,15.5375668 L0.0908357143,0.183048128 L11.9168607,0.183048128 L11.9168607,0.183235294 Z M9.92595119,3.9123262 L4.93092143,3.9123262 L4.93092143,11.8090374 L9.92595119,11.8090374 L9.92595119,3.9123262 Z" id="Shape" fill-opacity="0.9"></path>
                        <path d="M30.0520429,0.183235294 L32.8571095,2.85895722 L32.8571095,7.55363636 L30.577806,9.83481283 L32.8571095,15.5154813 L32.8571095,15.537754 L27.6641476,15.537754 L25.867619,10.7337701 L23.0627393,10.7337701 L23.0627393,15.537754 L18.2467643,15.537754 L18.2467643,0.183235294 L30.0520429,0.183235294 L30.0520429,0.183235294 Z M28.0583298,3.89005348 L23.0625524,3.89005348 L23.0625524,7.0273262 L28.0583298,7.0273262 L28.0583298,3.89005348 Z" id="Shape" fill-opacity="0.9"></path>
                        <polygon id="Path" fill-opacity="0.9" points="40.5407643 0.183235294 40.5407643 15.537754 35.6991833 15.537754 35.6991833 0.183235294 40.5407643 0.183235294"></polygon>
                        <polygon id="Path" fill-opacity="0.9" points="58.0847667 0.183235294 55.5880929 15.537754 45.885119 15.537754 43.3856417 0.183235294 48.1844214 0.183235294 50.3097155 11.8305615 51.1636833 11.8305615 53.2659881 0.183235294 58.0847667 0.183235294"></polygon>
                        <polygon id="Path" fill-opacity="0.9" points="74.2690369 0.183235294 74.2690369 3.93441176 66.4053929 3.93441176 66.4053929 6.01812834 72.3837286 6.01812834 72.3837286 9.72457219 66.4053929 9.72457219 66.4053929 11.8090374 74.2690369 11.8090374 74.2690369 15.5375668 61.5866143 15.5375668 61.5866143 0.183048128 74.2690369 0.183048128"></polygon>
                        <path d="M89.57635,0.183235294 L92.3814167,2.85895722 L92.3814167,7.55363636 L90.1021131,9.83481283 L92.3814167,15.5154813 L92.3814167,15.537754 L87.1886417,15.537754 L85.3919262,10.7337701 L82.58985,10.7337701 L82.58985,15.537754 L77.7710714,15.537754 L77.7710714,0.183235294 L89.57635,0.183235294 L89.57635,0.183235294 Z M87.5826369,3.89005348 L82.5896631,3.89005348 L82.5896631,7.0273262 L87.5826369,7.0273262 L87.5826369,3.89005348 Z" id="Shape" fill-opacity="0.9"></path>
                        <path d="M0.0908357143,22.3681818 L2.89440714,19.5606952 L11.8970488,19.5606952 L14.7021155,22.3681818 L14.7021155,32.1077273 L11.8970488,34.9152139 L2.89440714,34.9152139 L0.0908357143,32.1077273 L0.0908357143,22.3681818 L0.0908357143,22.3681818 Z M9.88315,23.2677005 L4.90942738,23.2677005 L4.90942738,31.2082086 L9.88315,31.2082086 L9.88315,23.2677005 Z" id="Shape"></path>
                        <polygon id="Path" points="22.6055702 19.5606952 28.4097107 27.3250802 28.4097107 19.5606952 32.8115048 19.5606952 32.8115048 34.9152139 28.8696833 34.9152139 22.6055702 26.5142781 22.6055702 34.9152139 18.2037762 34.9152139 18.2037762 19.5606952"></polygon>
                        <polygon id="Path" points="48.995775 19.5606952 48.995775 23.312246 41.132131 23.312246 41.132131 25.3959626 47.1106536 25.3959626 47.1106536 29.1016578 41.132131 29.1016578 41.132131 31.1868717 48.995775 31.1868717 48.995775 34.9154011 36.3135393 34.9154011 36.3135393 19.5606952"></polygon>
                    </g>
                    <g id="Group" fill-opacity="0.9">
                        <path d="M54.4361988,0.206631016 C54.4361988,0.206631016 52.6030369,0.197272727 50.7743607,0.358235294 C48.9456845,0.482700535 47.1218679,0.604919786 47.1218679,0.604919786 L47.1033643,0.365347594 C47.1033643,0.365347594 48.9393298,0.300213904 50.7745476,0.238074866 C52.6032238,0.13644385 54.4361988,0.206631016 54.4361988,0.206631016 Z" id="Path"></path>
                        <path d="M12.5981286,34.9436631 L29.1808798,34.9436631 L35.5277917,28.5437166 L35.5277917,19.7278342 C33.1726048,21.1639572 30.7604119,22.6858021 28.3768155,24.224492 C22.6732298,27.9144652 17.0726286,31.7659626 12.5981286,34.9436631 Z" id="Path"></path>
                        <path d="M49.9753429,10.5619519 C51.101444,10.1808824 52.1097952,9.91697861 52.9439512,9.69743316 C53.5581202,9.53665775 54.0693048,9.38991979 54.4791869,9.27331551 L54.4791869,0.179491979 L44.0669095,0.179491979 C44.0669095,0.179491979 43.8626226,4.0309893 38.8610512,4.3963369 L38.8610512,12.8459358 L43.1021071,12.8459358 C44.1547548,12.4654278 45.1636667,12.1137433 46.1292167,11.7920053 C47.5332452,11.308369 48.8342893,10.9280481 49.9753429,10.5619519 Z" id="Path"></path>
                        <path d="M5.40360357,29.2759091 C5.68134405,29.1443316 5.97347619,28.9985294 6.26635595,28.8510428 C8.3722119,27.8255615 10.7559952,26.6701872 13.3143476,25.4545455 L13.3143476,10.1372727 L9.46896905,8.62834225 L24.6185345,8.62834225 L24.6185345,20.3001872 C25.0719655,20.1085294 25.510444,19.9054545 25.963875,19.7137968 C29.1808798,18.3078075 32.4272286,16.9461765 35.5277917,15.7163102 L35.5277917,6.5931016 L29.137331,0.193716578 L2.3473369,0.193716578 L2.3473369,29.2029144 L0.0887797619,31.9731551 C0.644260714,31.6957754 1.65971429,31.1507487 2.3473369,30.8147861 C3.26840357,30.3457487 4.29170714,29.8336631 5.40360357,29.2759091 Z" id="Path"></path>
                        <path d="M55.8374238,8.84582888 L54.4791869,9.4778877 C54.0984619,9.65382353 53.6459655,9.85914439 53.0902976,10.1078877 C52.3148298,10.4590107 51.3793714,10.883877 50.3117714,11.4401337 C49.2585631,11.9821658 48.0451774,12.5678075 46.7583381,13.2558289 C45.895025,13.7097059 45.0031155,14.2075668 44.0669095,14.7204011 L44.0669095,34.9438503 L54.4791869,34.9438503 L54.4791869,10.4002406 L55.8374238,8.84582888 Z" id="Path"></path>
                    </g>
                </g>
            </g>
        </g>
    </g>
</svg>