<svg width="63" height="63" xmlns="http://www.w3.org/2000/svg"><g fill="none" fill-rule="evenodd"><circle fill-opacity=".6738" fill="#FF9835" cx="31.5" cy="31.5" r="31.5"/><path d="M31.5 0C14.1337 0 0 14.1337 0 31.5 0 48.8663 14.1337 63 31.5 63 48.8663 63 63 48.8663 63 31.5 63 14.1337 48.8663 0 31.5 0zm0 60.1432c-15.7876 0-28.6808-12.8556-28.6808-28.6808S15.6748 2.7816 31.5 2.7816s28.6808 12.8556 28.6808 28.6808S47.2876 60.1432 31.5 60.1432z" fill="#FFE490" fill-rule="nonzero"/><path d="M32 17.5428c3.3891 0 6.138 2.7137 6.138 6.0594 0 .7807.6402 1.4127 1.431 1.4127.7908 0 1.431-.632 1.431-1.4127 0-4.3866-3.2762-8.0297-7.5314-8.6989v-2.4907c0-.7806-.6401-1.4126-1.431-1.4126-.7907 0-1.431.632-1.431 1.4126v2.4536c-4.2551.6691-7.5313 4.3122-7.5313 8.6989 0 4.8698 4.0293 8.8475 8.9624 8.8475 3.389 0 6.138 2.7138 6.138 6.0595S35.3891 44.4944 32 44.4944s-6.138-2.7137-6.138-6.0595c0-.7806-.6402-1.4126-1.431-1.4126-.7908 0-1.431.632-1.431 1.4126 0 4.3867 3.2762 8.0298 7.5314 8.699v2.4535c0 .7806.6401 1.4126 1.431 1.4126.7907 0 1.431-.632 1.431-1.4126v-2.4536c4.2551-.6691 7.5313-4.3122 7.5313-8.6989 0-4.8698-4.0293-8.8475-8.9624-8.8475-3.389 0-6.138-2.7138-6.138-6.0595S28.6109 17.5428 32 17.5428z" fill="#FFE490" fill-rule="nonzero"/></g></svg>