<svg width="107" height="121" xmlns="http://www.w3.org/2000/svg"><path d="M18.2285 66.3401c3.065-9.6676 12.0494-16.2277 22.1912-16.2032h26.1195c10.1418-.0245 19.1263 6.5356 22.1912 16.2032a1.6708 1.6708 0 0 1-3.1825 1.0184c-2.6258-8.2808-10.3216-13.8998-19.0087-13.879H40.4197c-8.6871-.0208-16.3829 5.5982-19.0086 13.879a1.6708 1.6708 0 1 1-3.1825-1.0184zM31.84 73.5367l-1.6712 5.0137a1.6706 1.6706 0 1 0 3.1695 1.0576l1.6712-5.0137a1.6706 1.6706 0 1 0-3.1695-1.0576zm43.3656 7.2145a1.6725 1.6725 0 0 0 1.5847-2.2008l-1.6712-5.0137a1.6706 1.6706 0 1 0-3.1695 1.0576l1.6712 5.0137a1.6711 1.6711 0 0 0 1.5848 1.1432zm-39.3589-61.581A17.3838 17.3838 0 0 1 53.1367 0h2.001a17.382 17.382 0 0 1 12.9072 5.7409 17.3836 17.3836 0 0 1 4.3828 13.4293l-1.0004 9.67c-.9173 8.8597-8.383 15.5925-17.2901 15.5925-8.907 0-16.3729-6.7328-17.2901-15.5925l-1.0005-9.67zm3.3262-.3443l1.0004 9.67c.7396 7.156 6.7693 12.5951 13.9636 12.5951 7.1943 0 13.2243-5.4383 13.9643-12.5944l1.0005-9.6707a14.0366 14.0366 0 0 0-13.964-15.4834h-2.0009a14.0392 14.0392 0 0 0-13.964 15.4834zm35.5284 77.838l-9.399 9.1607 2.218 12.9358a1.6718 1.6718 0 0 1-2.4253 1.7618l-11.6154-6.1072-11.6155 6.1072a1.6712 1.6712 0 0 1-2.4252-1.7618l2.218-12.9358-9.399-9.1607a1.6717 1.6717 0 0 1 .927-2.8512l12.988-1.8867 5.8085-11.7688a1.7396 1.7396 0 0 1 2.9965 0l5.8085 11.7688 12.988 1.8867a1.6717 1.6717 0 0 1 .927 2.8512h-.0001zm-4.7591-.0302l-10.5056-1.526a1.6692 1.6692 0 0 1-1.2583-.9148l-4.6987-9.5199-4.6988 9.5198a1.6692 1.6692 0 0 1-1.2583.9148l-10.5056 1.526 7.6022 7.4104c.3934.3843.5727.9374.4798 1.4794l-1.7936 10.464 9.3958-4.9402a1.676 1.676 0 0 1 1.557 0l9.3958 4.9402-1.7937-10.464a1.6732 1.6732 0 0 1 .4798-1.4794l7.6022-7.4103zm20.1315-24.3374l4.7754 9.6765 10.6786 1.5512a1.6717 1.6717 0 0 1 .927 2.8512l-7.7278 7.532 1.8246 10.6354a1.6718 1.6718 0 0 1-2.4252 1.7618l-9.5509-5.0218-9.5508 5.0218a1.6712 1.6712 0 0 1-2.4252-1.7618l1.8246-10.6353-7.7277-7.532a1.6717 1.6717 0 0 1 .927-2.8512l10.6786-1.5513 4.7754-9.6764a1.7395 1.7395 0 0 1 2.9964 0zm-1.4983 4.516l-3.6656 7.4275a1.6692 1.6692 0 0 1-1.2583.9147l-8.1962 1.1906 5.9309 5.7816c.3934.3843.5727.9374.4798 1.4795l-1.4003 8.1635 7.3312-3.855a1.676 1.676 0 0 1 1.557 0l7.3313 3.855-1.4003-8.1636a1.6732 1.6732 0 0 1 .4798-1.4794l5.931-5.7816-8.1963-1.1906a1.6692 1.6692 0 0 1-1.2583-.9148l-3.6657-7.4274zm-88.071 9.563a1.6717 1.6717 0 0 1 .927-2.8512L12.11 81.9728l4.7754-9.6764a1.7396 1.7396 0 0 1 2.9966 0l4.7754 9.6764 10.6786 1.5513a1.6717 1.6717 0 0 1 .927 2.8512l-7.7278 7.532 1.8245 10.6353a1.6717 1.6717 0 0 1-2.4252 1.7618l-9.5508-5.0218-9.5509 5.0218a1.6712 1.6712 0 0 1-2.4252-1.7618l1.8247-10.6353-7.7279-7.532zm4.7591-.0302l5.931 5.7816c.3933.3843.5727.9374.4797 1.4795l-1.4003 8.1635 7.3313-3.855a1.676 1.676 0 0 1 1.557 0l7.3312 3.855-1.4003-8.1636a1.6732 1.6732 0 0 1 .4798-1.4794l5.931-5.7816-8.1963-1.1906a1.6692 1.6692 0 0 1-1.2583-.9148l-3.6656-7.4274-3.6657 7.4275a1.6692 1.6692 0 0 1-1.2583.9147l-8.1962 1.1906z" fill="#FFF" fill-rule="nonzero"/></svg>