<svg width="122" height="122" xmlns="http://www.w3.org/2000/svg"><g fill="#FFF" fill-rule="nonzero"><path d="M122 65.8477c0-1.8532-.5545-3.521-1.4788-5.0037l-12.3848-20.5706c-1.8485-2.9651-4.991-4.633-8.3182-4.633h-18.3V22.8532c0-1.112-.7394-1.8532-1.8485-1.8532-1.109 0-1.8485.7413-1.8485 1.8532V71.222H3.697V22.8532C3.697 21.7412 2.9576 21 1.8485 21 .7394 21 0 21.7413 0 22.8532v81.7266c0 1.112.7394 1.8532 1.8485 1.8532h19.409C20.5183 114.7725 26.988 122 35.3062 122c8.3181 0 14.9727-7.2275 14.0484-15.567h31.4243c-.5546 8.3395 6.1 15.567 14.4182 15.567 8.3182 0 14.9727-7.2275 14.0485-15.567h10.906c1.1091 0 1.8485-.7413 1.8485-1.8532v-38.732zm-22.1818-26.501c2.0333 0 4.0666 1.112 5.1757 2.9652l12.3849 20.3853c.5545.9267.9242 2.0386.9242 3.1505v17.0495H81.5182V39.3468h18.3zm-21.997 35.5817v7.9688H3.697v-7.9688h74.1242zM35.491 118.2936c-5.7303 0-10.5364-4.633-10.5364-10.5633 0-5.745 4.6213-10.5633 10.5364-10.5633 5.7303 0 10.5364 4.633 10.5364 10.5633-.1849 5.9303-4.806 10.5633-10.5364 10.5633zm59.706 0c-5.7302 0-10.5363-4.633-10.5363-10.5633 0-5.745 4.6212-10.5633 10.5364-10.5633 5.7303 0 10.5363 4.633 10.5363 10.5633s-4.806 10.5633-10.5363 10.5633zm23.1061-15.567h-9.797c-2.0333-5.3743-7.209-9.0807-13.309-9.0807s-11.2758 3.7064-13.3091 9.0807H48.6152c-2.0334-5.3743-7.2091-9.0807-13.3091-9.0807-6.1 0-11.2758 3.7064-13.3091 9.0807h-18.3v-16.123h114.606v16.123z"/><path d="M90 66h18.1818c1.091 0 1.8182-.734 1.8182-1.8349 0-.5504-.1818-.9174-.5455-1.2844l-8.909-14.4954C99.6364 46.9174 98 46 96.3636 46h-6.5454C88.7272 46 88 46.734 88 47.8349v16.1468C88.1818 65.0826 88.909 66 90 66zm1.8182-16.3303h4.7273c.3636 0 .909.1835 1.0909.5505l7.2727 11.9266H91.818v-12.477zM8 20.648v43.5084C8 65.2626 8.7395 66 9.8487 66h62.3026C73.2605 66 74 65.2626 74 64.1564V1.8436C74 .7374 73.2605 0 72.1513 0H9.8487C8.7395 0 8 .7374 8 1.8436V20.648zm3.6975 41.6648V22.3073h58.605v39.8212h-58.605v.1843zM57.3613 8.8492c1.1093 0 2.0337.9217 2.0337 2.0279 0 1.1061-.9244 2.028-2.0337 2.028-1.1092 0-2.0336-.9219-2.0336-2.028 0-1.1062.9244-2.028 2.0336-2.028zm-32.5378 0c1.1093 0 2.0336.9217 2.0336 2.0279 0 1.1061-.9243 2.028-2.0336 2.028-1.1092 0-2.0336-.9219-2.0336-2.028 0-1.1062.9244-2.028 2.0336-2.028zm-1.8487-5.162v1.8435c-2.2185.7375-3.8824 2.9497-3.8824 5.3464 0 3.134 2.5883 5.715 5.7311 5.715 3.1429 0 5.7311-2.581 5.7311-5.715 0-2.581-1.6638-4.609-3.8823-5.3464V3.6872h28.8403v1.8435c-2.2185.7375-3.8823 2.9497-3.8823 5.3464 0 3.134 2.5882 5.715 5.731 5.715 3.1429 0 5.7311-2.581 5.7311-5.715 0-2.581-1.6638-4.609-3.8823-5.3464V3.6872h11.2773v14.933h-58.79V3.6871h11.2774z"/><path d="M27.169 25h-9.338C16.7324 25 16 25.7568 16 26.8919V37.108C16 38.2432 16.7324 39 17.831 39h9.338C28.2676 39 29 38.2432 29 37.1081V26.892C29 25.9459 28.0845 25 27.169 25zm-1.831 10.2162h-5.676v-6.4324h5.676v6.4324zM44.169 25h-9.338C33.7324 25 33 25.7568 33 26.8919V37.108C33 38.2432 33.7324 39 34.831 39h9.338C45.2676 39 46 38.2432 46 37.1081V26.892C46 25.9459 45.0845 25 44.169 25zm-1.831 10.2162h-5.676v-6.4324h5.676v6.4324zM27.169 43h-9.338C16.7324 43 16 43.7568 16 44.8919V55.108C16 56.2432 16.7324 57 17.831 57h9.338C28.2676 57 29 56.2432 29 55.1081V44.892C29 43.9459 28.0845 43 27.169 43zm-1.831 10.2162h-5.676v-6.4324h5.676v6.4324zM44.169 43h-9.338C33.7324 43 33 43.7568 33 44.8919V55.108C33 56.2432 33.7324 57 34.831 57h9.338C45.2676 57 46 56.2432 46 55.1081V44.892C46 43.9459 45.0845 43 44.169 43zm-1.831 10.2162h-5.676v-6.4324h5.676v6.4324zM52.831 39h9.338C63.2676 39 64 38.2432 64 37.1081V26.892C64 25.7568 63.2676 25 62.169 25h-9.338C51.7324 25 51 25.7568 51 26.8919V37.108C51 38.2432 51.7324 39 52.831 39zm1.831-10.2162h5.676v6.4324h-5.676v-6.4324zM64.7331 42.61l-9.256 10.1349-3.0855-5.2552c-.5444-.9384-1.6334-1.126-2.5409-.563-.9074.563-1.089 1.6891-.5444 2.6276l4.3558 7.5073c.363.563.726.7507 1.452.9384.5444 0 1.0889-.1877 1.4519-.563l10.8895-12.0118c.726-.7507.726-1.8768 0-2.6275-.9074-1.1261-1.9964-.9385-2.7224-.1877z"/></g></svg>